<svg xmlns="http://www.w3.org/2000/svg" width="178" height="413" fill="none" viewBox="0 0 178 413">
  <path fill="#FE7F2D" d="M-46.19 5.303c38.04 10.69 66.845 42.782 82.762 70.247 15.918 27.465 18.511 50.787 42.785 70.924 24.274 20.136 69.77 37.112 88.076 66.294 18.33 29.64 9.036 71.97-12.355 116.072-21.607 44.342-55.77 90.481-90.407 83.294-35.097-7.162-70.67-67.649-114.663-95.51-43.992-27.86-96.429-23.553-134.607-45.734s-61.639-70.873-58.353-118.183c3.528-47.092 33.586-92.559 72.614-120.321C-131.552 4.406-84.013-5.63-46.19 5.303Z"/>
</svg>
