<svg xmlns="http://www.w3.org/2000/svg" width="650" height="265" fill="none" viewBox="0 0 650 265">
  <path fill="#fff" fill-rule="evenodd" stroke="#000000" stroke-width="2.081" d="M126.008 41.765a7.279 7.279 0 0 1 7.29-7.283h253.574a7.285 7.285 0 0 1 7.29 7.283v173.542a7.28 7.28 0 0 1-7.29 7.284H133.298a7.285 7.285 0 0 1-7.29-7.284V41.765Z" clip-rule="evenodd"/>
  <path fill="#fff" fill-rule="evenodd" stroke="#000000" stroke-width="2.081" d="M142.41 53.736a3.128 3.128 0 0 1 3.126-3.123h228.838a3.119 3.119 0 0 1 3.126 3.123v129.306a3.128 3.128 0 0 1-3.126 3.124H145.536a3.12 3.12 0 0 1-3.126-3.124V53.737Zm98.58 168.855h38.451l2.596 33.563h-43.643l2.596-33.563Zm-18.656 40.851v-3.516c0-2.08 1.69-3.772 3.77-3.772h68.222a3.777 3.777 0 0 1 3.77 3.772v3.516a.254.254 0 0 1-.261.257h-75.239a.259.259 0 0 1-.262-.257Z" clip-rule="evenodd"/>
  <path stroke="#000000" stroke-width="2.081" d="M260.215 210.623a4.816 4.816 0 0 0 4.817-4.814 4.815 4.815 0 0 0-4.817-4.813 4.814 4.814 0 1 0 0 9.627Z"/>
  <path fill="#fff" stroke="#000000" stroke-width="2.081" d="M146.578 162.75h-39.059a6.244 6.244 0 0 0-6.244 6.244v88.461a6.245 6.245 0 0 0 6.244 6.244h39.059a6.245 6.245 0 0 0 6.244-6.244v-88.461a6.244 6.244 0 0 0-6.244-6.244Z"/>
  <path fill="#fff" fill-rule="evenodd" stroke="#000000" stroke-width="2.081" d="M101.275 173.937h51.547v74.75h-51.547v-74.75Z" clip-rule="evenodd"/>
  <path fill="#000000" d="M138.504 167.173h-22.651a1.04 1.04 0 1 0 0 2.081h22.651a1.04 1.04 0 1 0 0-2.081Zm-11.349 85.859h-.004a2.966 2.966 0 0 0 0 5.932h.004a2.966 2.966 0 0 0 0-5.932Z"/>
  <path fill="#fff" stroke="#000000" stroke-width="2.081" d="M115.854 215.046a3.904 3.904 0 1 0-3.905-3.903 3.904 3.904 0 0 0 3.905 3.903Z"/>
  <path fill="#000000" d="M142.149 204.378h-16.142a1.04 1.04 0 1 0 0 2.082h16.142a1.04 1.04 0 1 0 0-2.082Zm-5.207 5.724h-10.935a1.04 1.04 0 1 0 0 2.082h10.935a1.04 1.04 0 1 0 0-2.082Zm-5.206 5.724h-5.729a1.04 1.04 0 1 0 0 2.082h5.729a1.04 1.04 0 0 0 0-2.082Z"/>
  <path fill="#fff" stroke="#000000" stroke-width="2.081" d="M74.85 211.663c22.07 0 39.963-17.88 39.963-39.937s-17.892-39.938-39.964-39.938c-22.071 0-39.963 17.881-39.963 39.938 0 22.057 17.892 39.937 39.963 39.937Zm431.265-88.2H325.949a6.244 6.244 0 0 0-6.244 6.244v116.82a6.244 6.244 0 0 0 6.244 6.244h180.166a6.243 6.243 0 0 0 6.244-6.244v-116.82a6.243 6.243 0 0 0-6.244-6.244Z"/>
  <path fill="#fff" fill-rule="evenodd" stroke="#000000" stroke-width="2.081" d="M306.426 253.026v5.209a5.468 5.468 0 0 0 5.462 5.464h208.288a5.468 5.468 0 0 0 5.462-5.464v-5.209a.254.254 0 0 0-.259-.255H306.685a.254.254 0 0 0-.259.255Z" clip-rule="evenodd"/>
  <path fill="#fff" fill-rule="evenodd" stroke="#000000" stroke-width="2.081" d="m430.429 252.889-29.159-.001a8.067 8.067 0 0 0 7.538 5.204h14.083a8.067 8.067 0 0 0 7.538-5.203Z" clip-rule="evenodd"/>
  <path fill="#fff" stroke="#000000" stroke-width="2.081" d="M501.533 135.691H330.376a2.082 2.082 0 0 0-2.081 2.082v100.91c0 1.149.932 2.081 2.081 2.081h171.157c1.15 0 2.082-.932 2.082-2.081v-100.91c0-1.15-.932-2.082-2.082-2.082Z"/>
  <path fill="#293347" d="M254.358 54.255a1.301 1.301 0 1 0 0-2.602 1.301 1.301 0 0 0 0 2.602Z"/>
  <path fill="#fff" fill-rule="evenodd" stroke="#000000" stroke-width="2.081" d="M179.899 14.968h120.279v115.26c0 4.021-3.269 7.284-7.292 7.284H187.191c-4.025 0-7.292-3.264-7.292-7.284V14.968Z" clip-rule="evenodd"/>
  <path fill="#fff" fill-rule="evenodd" stroke="#000000" stroke-width="2.081" d="M179.899 9.238c0-4.018 3.27-7.279 7.292-7.279h105.695c4.027 0 7.292 3.257 7.292 7.279v7.812H179.899V9.238Z" clip-rule="evenodd"/>
  <path fill="#000000" d="M191.094 11.846a2.342 2.342 0 1 0 .001-4.685 2.342 2.342 0 0 0-.001 4.685Zm7.81 0a2.342 2.342 0 1 0 .001-4.685 2.342 2.342 0 0 0-.001 4.685Zm7.81 0a2.342 2.342 0 1 0 .001-4.685 2.342 2.342 0 0 0-.001 4.685Zm-8.59 79.094h-2.605a1.04 1.04 0 1 0 0 2.082h2.605a1.04 1.04 0 0 0 0-2.082Zm0-52.035h-2.605a1.04 1.04 0 1 0 0 2.081h2.605a1.04 1.04 0 0 0 0-2.081Z"/>
  <path fill="#000000" fill-rule="evenodd" d="M203.329 38.905h7.031a1.04 1.04 0 1 1 0 2.081h-7.031a1.04 1.04 0 1 1 0-2.081Zm11.716 0h7.03a1.04 1.04 0 1 1 0 2.081h-7.03a1.04 1.04 0 1 1 0-2.081Zm11.715 0h13.019a1.04 1.04 0 1 1 0 2.081H226.76a1.04 1.04 0 0 1 0-2.081Zm17.704 0h19.267a1.04 1.04 0 0 1 0 2.081h-19.267a1.04 1.04 0 1 1 0-2.081Z" clip-rule="evenodd"/>
  <path fill="#000000" d="M198.124 49.312h-2.605a1.04 1.04 0 1 0 0 2.081h2.605a1.04 1.04 0 0 0 0-2.081Zm0 10.407h-2.605a1.04 1.04 0 1 0 0 2.081h2.605a1.04 1.04 0 0 0 0-2.081Zm0 10.407h-2.605a1.04 1.04 0 1 0 0 2.081h2.605a1.04 1.04 0 0 0 0-2.08Zm0 10.407h-2.605a1.04 1.04 0 1 0 0 2.082h2.605a1.04 1.04 0 0 0 0-2.082Zm0 20.815h-2.605a1.04 1.04 0 1 0 0 2.081h2.605a1.04 1.04 0 0 0 0-2.081Zm0 10.407h-2.605a1.04 1.04 0 1 0 0 2.081h2.605a1.04 1.04 0 0 0 0-2.081Zm21.348-62.443h-16.143a1.04 1.04 0 1 0 0 2.081h16.143a1.04 1.04 0 1 0 0-2.081Zm33.845 0h-29.16a1.04 1.04 0 1 0 0 2.081h29.16a1.04 1.04 0 1 0 0-2.081Zm15.621 0h-10.936a1.04 1.04 0 1 0 0 2.081h10.936a1.04 1.04 0 0 0 0-2.081Zm-54.673 10.407h-10.936a1.04 1.04 0 1 0 0 2.081h10.936a1.04 1.04 0 1 0 0-2.081Zm15.621 0H218.95a1.04 1.04 0 1 0 0 2.081h10.936a1.04 1.04 0 1 0 0-2.081Zm10.414 0h-5.729a1.04 1.04 0 1 0 0 2.081h5.729a1.04 1.04 0 0 0 0-2.081Zm-13.018 10.407h-23.953a1.04 1.04 0 1 0 0 2.081h23.953a1.04 1.04 0 1 0 0-2.08Zm20.828 0h-16.143a1.04 1.04 0 1 0 0 2.081h16.143a1.04 1.04 0 1 0 0-2.08Zm-20.828 10.407h-23.953a1.04 1.04 0 1 0 0 2.082h23.953a1.04 1.04 0 1 0 0-2.082Zm36.449 0h-31.764a1.04 1.04 0 1 0 0 2.082h31.764a1.04 1.04 0 0 0 0-2.082ZM219.472 90.94h-16.143a1.04 1.04 0 1 0 0 2.082h16.143a1.04 1.04 0 1 0 0-2.082Zm20.828 0h-16.143a1.04 1.04 0 1 0 0 2.082H240.3a1.04 1.04 0 0 0 0-2.082Zm13.017 0h-8.333a1.04 1.04 0 0 0 0 2.082h8.333a1.04 1.04 0 1 0 0-2.082Zm-18.224 10.408h-31.764a1.04 1.04 0 1 0 0 2.081h31.764a1.04 1.04 0 0 0 0-2.081Zm-18.225 10.407h-13.539a1.04 1.04 0 1 0 0 2.081h13.539a1.04 1.04 0 1 0 0-2.081Z"/>
  <path fill="#fff" fill-rule="evenodd" stroke="#000000" stroke-width="2.081" d="M414.991 96.664h142.668v101.479a7.278 7.278 0 0 1-7.285 7.276H422.277c-4.021 0-7.286-3.262-7.286-7.276V96.664Z" clip-rule="evenodd"/>
  <path fill="#fff" fill-rule="evenodd" stroke="#000000" stroke-width="2.081" d="M414.991 90.934a7.28 7.28 0 0 1 7.286-7.279h128.097a7.28 7.28 0 0 1 7.285 7.279v7.812H414.991v-7.812Z" clip-rule="evenodd"/>
  <path fill="#000000" d="M426.186 93.542a2.342 2.342 0 1 0-2.344-2.341 2.343 2.343 0 0 0 2.344 2.341Zm7.81 0a2.342 2.342 0 1 0 .001-4.685 2.342 2.342 0 0 0-.001 4.685Zm7.81 0a2.342 2.342 0 1 0 .001-4.685 2.342 2.342 0 0 0-.001 4.685Z"/>
  <path fill="#fff" stroke="#000000" stroke-width="2.342" d="M503.248 177.06c14.378 0 26.034-11.649 26.034-26.018 0-14.37-11.656-26.018-26.034-26.018-14.379 0-26.035 11.648-26.035 26.018 0 14.369 11.656 26.018 26.035 26.018Z"/>
  <path fill="#fff" fill-rule="evenodd" stroke="#000000" stroke-width="2.081" d="M500.383 121.902v6.244h6.25v-6.244h-6.25Zm-.26 52.035v6.245h6.25v-6.245h-6.25Zm-26.034-25.757v6.244h6.249v-6.244h-6.249Zm51.808 0v6.244h6.25v-6.244h-6.25Z" clip-rule="evenodd"/>
  <path stroke="#000000" stroke-linecap="square" stroke-width="2.081" d="M529.282 127.626v19.513m0 7.805v19.514"/>
  <path fill="#000000" d="M529.282 129.967a3.124 3.124 0 0 0 3.125-3.122 3.124 3.124 0 0 0-3.125-3.122 3.123 3.123 0 0 0-3.124 3.122 3.123 3.123 0 0 0 3.124 3.122Zm0 49.434a3.124 3.124 0 0 0 3.125-3.122 3.124 3.124 0 0 0-3.125-3.122 3.123 3.123 0 0 0-3.124 3.122 3.123 3.123 0 0 0 3.124 3.122Z"/>
  <path fill="#fff" stroke="#000000" stroke-width="2.081" d="M453.525 119.56h-9.899a3.122 3.122 0 0 0-3.122 3.122v9.887a3.122 3.122 0 0 0 3.122 3.122h9.899a3.122 3.122 0 0 0 3.122-3.122v-9.887a3.122 3.122 0 0 0-3.122-3.122Zm0 23.416h-9.899a3.122 3.122 0 0 0-3.122 3.122v9.887a3.122 3.122 0 0 0 3.122 3.122h9.899a3.122 3.122 0 0 0 3.122-3.122v-9.887a3.122 3.122 0 0 0-3.122-3.122Zm0 23.416h-9.899a3.122 3.122 0 0 0-3.122 3.122v9.887a3.122 3.122 0 0 0 3.122 3.122h9.899a3.122 3.122 0 0 0 3.122-3.122v-9.887a3.122 3.122 0 0 0-3.122-3.122Zm178.854 88.201c8.627 0 15.621-6.989 15.621-15.611 0-8.621-6.994-15.611-15.621-15.611s-15.62 6.99-15.62 15.611c0 8.622 6.993 15.611 15.62 15.611Z"/>
  <path fill="#fff" stroke="#000000" stroke-width="2.081" d="M632.379 248.088c5.033 0 9.112-4.077 9.112-9.106s-4.079-9.106-9.112-9.106c-5.032 0-9.112 4.077-9.112 9.106s4.08 9.106 9.112 9.106Zm-20.827-27.579a5.205 5.205 0 0 0 5.207-5.203 5.206 5.206 0 0 0-5.207-5.204 5.205 5.205 0 1 0 0 10.407Z"/>
  <path fill="#fff" fill-rule="evenodd" stroke="#000000" stroke-width="2.081" d="M588.64 214.005a1.04 1.04 0 0 0-1.041 1.041v43.71a5.204 5.204 0 0 0 5.204 5.203h35.917a5.204 5.204 0 0 0 5.204-5.203v-43.71a1.04 1.04 0 0 0-1.041-1.041H588.64Z" clip-rule="evenodd"/>
  <path fill="#fff" stroke="#000000" stroke-width="2.081" d="M620.146 228.055h-7.295a3.121 3.121 0 0 0-3.122 3.122v10.407a3.122 3.122 0 0 0 3.122 3.122h7.295a3.122 3.122 0 0 0 3.122-3.122v-10.407a3.122 3.122 0 0 0-3.122-3.122Z"/>
  <path stroke="#000000" stroke-linecap="square" stroke-width="2.081" d="M616.368 214.395v11.838"/>
  <path fill="#fff" fill-rule="evenodd" stroke="#000000" stroke-width="2.081" d="M557.92 263.699h15.621c0-8.621-6.993-15.611-15.621-15.611-8.627 0-15.62 6.99-15.62 15.611h15.62Z" clip-rule="evenodd"/>
  <path fill="#000000" d="M558.962 248.609a1.041 1.041 0 0 0-2.083 0v1.3a1.04 1.04 0 1 0 2.083 0v-1.3Z"/>
  <path fill="#fff" fill-rule="evenodd" stroke="#000000" stroke-width="2.081" d="M16.391 232.998c-8.478 0-15.35 6.873-15.35 15.35 0 8.478 6.872 15.351 15.35 15.351h63.016c.862 0 1.561-.699 1.561-1.561v-2.416a2.081 2.081 0 0 0-1.934-2.076c-7.154-.508-10.954-3.651-10.954-9.298 0-5.646 3.8-8.789 10.954-9.297a2.081 2.081 0 0 0 1.934-2.076v-2.416c0-.862-.699-1.561-1.561-1.561H16.391Z" clip-rule="evenodd"/>
  <path stroke="#000000" stroke-width="2.081" d="M80.186 258.3a.456.456 0 0 1-.456.456H16.141c-5.751 0-10.413-4.66-10.413-10.407 0-5.748 4.662-10.408 10.413-10.408H79.73c.252 0 .456.205.456.456"/>
  <path fill="#000000" d="M67.69 243.925H15.1a1.04 1.04 0 0 0 0 2.082h52.59a1.04 1.04 0 0 0 0-2.082Zm0 6.505H15.1a1.04 1.04 0 0 0 0 2.081h52.59a1.04 1.04 0 1 0 0-2.081Zm-2.564-69.375-3.833-3.405c-2.036-1.807-4.066-3.62-6.102-5.427-.467-.411-.933-.828-1.394-1.24v1.639l3.833-3.405c2.036-1.807 4.066-3.62 6.102-5.427.467-.411.934-.828 1.394-1.239.456-.406.45-1.234 0-1.639-.484-.446-1.16-.435-1.65 0l-3.834 3.405c-2.036 1.807-4.066 3.62-6.102 5.427-.467.411-.933.828-1.394 1.239-.45.4-.45 1.24 0 1.639l3.833 3.406c2.036 1.807 4.066 3.62 6.102 5.427.467.411.934.828 1.394 1.239.456.406 1.208.481 1.651 0 .409-.44.485-1.205 0-1.639Zm19.457-18.502 3.833 3.406c2.036 1.807 4.066 3.62 6.102 5.427.467.411.933.828 1.394 1.239v-1.639l-3.833 3.406c-2.036 1.807-4.066 3.619-6.102 5.426-.467.412-.934.829-1.394 1.24-.456.405-.45 1.233 0 1.639.484.446 1.16.434 1.65 0l3.834-3.406c2.036-1.807 4.066-3.619 6.102-5.426.467-.412.934-.829 1.394-1.24.45-.399.45-1.239 0-1.639l-3.833-3.405c-2.036-1.807-4.066-3.62-6.102-5.427-.467-.411-.933-.828-1.394-1.24-.455-.405-1.208-.48-1.651 0-.409.441-.485 1.205 0 1.639Zm-13.889 25.323c.35-1.043.694-2.085 1.044-3.134.834-2.507 1.669-5.009 2.503-7.517a5527.26 5527.26 0 0 1 3.016-9.064l2.608-7.836c.414-1.269.88-2.531 1.266-3.817l.017-.052c.193-.573-.221-1.292-.816-1.425a1.193 1.193 0 0 0-1.435.811c-.35 1.043-.695 2.085-1.045 3.133l-2.503 7.518a5433.524 5433.524 0 0 1-3.016 9.064l-2.608 7.836c-.414 1.263-.88 2.525-1.266 3.811l-.017.052c-.193.573.221 1.291.817 1.425a1.196 1.196 0 0 0 1.435-.805Z"/>
</svg>
